<mxfile host="app.diagrams.net" modified="2021-02-21T03:10:55.692Z" agent="5.0 (Windows NT 10.0; Win64; x64) AppleWebKit/537.36 (KHTML, like Gecko) Chrome/88.0.4324.182 Safari/537.36" etag="PAJZwQy37WHEVI9nIcXa" version="14.4.2" type="github" pages="4">
  <diagram id="C5RBs43oDa-KdzZeNtuy" name="Page-1">
    <mxGraphModel dx="791" dy="1627" grid="1" gridSize="10" guides="1" tooltips="1" connect="1" arrows="1" fold="1" page="1" pageScale="1" pageWidth="827" pageHeight="1169" math="0" shadow="0">
      <root>
        <mxCell id="WIyWlLk6GJQsqaUBKTNV-0" />
        <mxCell id="WIyWlLk6GJQsqaUBKTNV-1" parent="WIyWlLk6GJQsqaUBKTNV-0" />
        <mxCell id="W7DMfxvP5UNIumT03wTU-0" value="Rodrigo Duran" style="rounded=1;whiteSpace=wrap;html=1;" parent="WIyWlLk6GJQsqaUBKTNV-1" vertex="1">
          <mxGeometry x="50" y="-980" width="120" height="60" as="geometry" />
        </mxCell>
        <mxCell id="9TRLGIKzOXJ6i6BAbfcn-0" value="Rodrigo Duran.&amp;nbsp;" style="rounded=0;whiteSpace=wrap;html=1;" vertex="1" parent="WIyWlLk6GJQsqaUBKTNV-1">
          <mxGeometry x="60" y="30" width="110" height="50" as="geometry" />
        </mxCell>
        <mxCell id="9TRLGIKzOXJ6i6BAbfcn-1" value="Diagramas de Flujo 2" style="rounded=1;whiteSpace=wrap;html=1;" vertex="1" parent="WIyWlLk6GJQsqaUBKTNV-1">
          <mxGeometry x="160" y="90" width="390" height="60" as="geometry" />
        </mxCell>
        <mxCell id="9TRLGIKzOXJ6i6BAbfcn-3" value="&#xa;&#xa;&lt;p style=&quot;display: block; padding: 0px; color: rgb(45, 59, 69); font-family: latoweb, &amp;quot;lato extended&amp;quot;, lato, &amp;quot;helvetica neue&amp;quot;, helvetica, arial, sans-serif; font-size: 16px; font-style: normal; font-weight: 400; letter-spacing: normal; text-indent: 0px; text-transform: none; word-spacing: 0px; background-color: rgb(255, 255, 255);&quot;&gt;1. De los siguientes DF determinar (i) cuáles son las variables de entrada, salida y auxiliar si aplica; (ii) indicar qué problema resuelve; (iii) realizar la prueba de escritorio con 3 entradas diferentes.&lt;/p&gt;&lt;p style=&quot;display: block; padding: 0px; color: rgb(45, 59, 69); font-family: latoweb, &amp;quot;lato extended&amp;quot;, lato, &amp;quot;helvetica neue&amp;quot;, helvetica, arial, sans-serif; font-size: 16px; font-style: normal; font-weight: 400; letter-spacing: normal; text-indent: 0px; text-transform: none; word-spacing: 0px; background-color: rgb(255, 255, 255);&quot;&gt;DF-1&lt;/p&gt;&lt;p style=&quot;display: block; padding: 0px; color: rgb(45, 59, 69); font-family: latoweb, &amp;quot;lato extended&amp;quot;, lato, &amp;quot;helvetica neue&amp;quot;, helvetica, arial, sans-serif; font-size: 16px; font-style: normal; font-weight: 400; letter-spacing: normal; text-indent: 0px; text-transform: none; word-spacing: 0px; background-color: rgb(255, 255, 255); text-align: center;&quot;&gt;&lt;img src=&quot;https://ucb.instructure.com/courses/1259/files/141151/preview&quot; alt=&quot;df1.JPG&quot; style=&quot;max-width: 480px ; height: auto ; vertical-align: middle ; border: 0px&quot;&gt;&amp;nbsp;&amp;nbsp;&lt;/p&gt;&#xa;&#xa;" style="whiteSpace=wrap;html=1;aspect=fixed;" vertex="1" parent="WIyWlLk6GJQsqaUBKTNV-1">
          <mxGeometry x="90" y="160" width="520" height="520" as="geometry" />
        </mxCell>
        <mxCell id="9TRLGIKzOXJ6i6BAbfcn-5" value="DESARROLLO:" style="rounded=1;whiteSpace=wrap;html=1;" vertex="1" parent="WIyWlLk6GJQsqaUBKTNV-1">
          <mxGeometry x="40" y="710" width="120" height="60" as="geometry" />
        </mxCell>
        <mxCell id="9TRLGIKzOXJ6i6BAbfcn-6" value="1. Identificar las variables&lt;br&gt;&lt;br&gt;&amp;nbsp;- Variables de entrada:&amp;nbsp; &amp;nbsp; &amp;nbsp; &amp;nbsp; &amp;nbsp; &amp;nbsp; &amp;nbsp; &amp;nbsp; &amp;nbsp; Numero&lt;br&gt;- variables de Salida:&amp;nbsp; &amp;nbsp; &amp;nbsp; &amp;nbsp;Numero Positivo" style="rounded=0;whiteSpace=wrap;html=1;" vertex="1" parent="WIyWlLk6GJQsqaUBKTNV-1">
          <mxGeometry x="50" y="810" width="590" height="100" as="geometry" />
        </mxCell>
        <mxCell id="9TRLGIKzOXJ6i6BAbfcn-8" value="2. Indicar que problema resuelve&lt;br&gt;&amp;nbsp;-Determinar si un Numero(N) es mayor, menor o igual a cero, si es diferente a cero determinar si el numero es positivo .&amp;nbsp;" style="rounded=0;whiteSpace=wrap;html=1;" vertex="1" parent="WIyWlLk6GJQsqaUBKTNV-1">
          <mxGeometry x="40" y="940" width="600" height="80" as="geometry" />
        </mxCell>
        <mxCell id="9TRLGIKzOXJ6i6BAbfcn-9" value="3. Prueba de escritorio:&lt;br&gt;N&amp;gt;0&lt;br&gt;- positivo:&amp;nbsp; &amp;nbsp;3&amp;gt;0,&amp;nbsp; &amp;nbsp;56&amp;gt;0,&amp;nbsp; &amp;nbsp;10&amp;gt;0&lt;br&gt;- negativo:&amp;nbsp; -6&amp;lt;0,&amp;nbsp; &amp;nbsp;-1&amp;lt;0,&amp;nbsp; &amp;nbsp;-7&amp;lt;0&lt;br&gt;- Igual a 0:&amp;nbsp; &amp;nbsp; &amp;nbsp;0=0&amp;nbsp; &amp;nbsp; &amp;nbsp; &amp;nbsp; &amp;nbsp; &amp;nbsp; &amp;nbsp; &amp;nbsp; &amp;nbsp; &amp;nbsp; &amp;nbsp;&lt;br&gt;&amp;nbsp;" style="rounded=0;whiteSpace=wrap;html=1;" vertex="1" parent="WIyWlLk6GJQsqaUBKTNV-1">
          <mxGeometry x="50" y="1060" width="600" height="100" as="geometry" />
        </mxCell>
      </root>
    </mxGraphModel>
  </diagram>
  <diagram id="d353bmlWmow5Hl_oIUxo" name="Page-2">
    <mxGraphModel dx="791" dy="458" grid="1" gridSize="10" guides="1" tooltips="1" connect="1" arrows="1" fold="1" page="1" pageScale="1" pageWidth="827" pageHeight="1169" math="0" shadow="0">
      <root>
        <mxCell id="SAbvqaDqnWTxNuCs36iu-0" />
        <mxCell id="SAbvqaDqnWTxNuCs36iu-1" parent="SAbvqaDqnWTxNuCs36iu-0" />
        <mxCell id="0ohTp5ZolXic3X57CokR-1" value="&#xa;&#xa;&lt;img src=&quot;https://ucb.instructure.com/courses/1259/files/141152/preview&quot; alt=&quot;df2.JPG&quot; style=&quot;max-width: 498px; height: auto; vertical-align: middle; border: 0px; color: rgb(45, 59, 69); font-family: latoweb, &amp;quot;lato extended&amp;quot;, lato, &amp;quot;helvetica neue&amp;quot;, helvetica, arial, sans-serif; font-size: 16px; font-style: normal; font-weight: 400; letter-spacing: normal; text-align: center; text-indent: 0px; text-transform: none; word-spacing: 0px; background-color: rgb(255, 255, 255);&quot;&gt;&#xa;&#xa;" style="whiteSpace=wrap;html=1;aspect=fixed;" vertex="1" parent="SAbvqaDqnWTxNuCs36iu-1">
          <mxGeometry x="180" y="70" width="410" height="410" as="geometry" />
        </mxCell>
        <mxCell id="zLWawx-Yy2cJ8uSANWpe-0" value="DESARROLLO" style="rounded=0;whiteSpace=wrap;html=1;" vertex="1" parent="SAbvqaDqnWTxNuCs36iu-1">
          <mxGeometry x="40" y="500" width="120" height="60" as="geometry" />
        </mxCell>
        <mxCell id="wey3IpPWUv53F9elFMAz-0" value="1. Identificar las variables&lt;br&gt;&lt;br&gt;&amp;nbsp;- Variables de entrada:&amp;nbsp; &amp;nbsp; &amp;nbsp; &amp;nbsp; &amp;nbsp; &amp;nbsp; &amp;nbsp; &amp;nbsp;N, M&lt;br&gt;- variables de Salida:&amp;nbsp; &amp;nbsp; &amp;nbsp; N Y M son multiplos." style="rounded=0;whiteSpace=wrap;html=1;" vertex="1" parent="SAbvqaDqnWTxNuCs36iu-1">
          <mxGeometry x="60" y="600" width="590" height="100" as="geometry" />
        </mxCell>
        <mxCell id="_gmAtrERJ7OomwUm7SFR-0" value="2. Indicar que problema resuelve&lt;br&gt;-Dados un Divisor y un Dividendo en una operación algebraica, determinar si dichos numeros dan de residuo cero aun asi intercambiando roles, para que tanto el Divisor y el Dividendo sean múltiplos.&amp;nbsp;" style="rounded=0;whiteSpace=wrap;html=1;" vertex="1" parent="SAbvqaDqnWTxNuCs36iu-1">
          <mxGeometry x="70" y="750" width="580" height="100" as="geometry" />
        </mxCell>
        <mxCell id="hVbGRV14KloW-pIKTLZz-0" value="3. Prueba de escritorio:&lt;br&gt;- N mod M= 0:&amp;nbsp; 25/5=5. residuo 0,&amp;nbsp; &amp;nbsp; 20/2=10. residuo 0,&amp;nbsp; 36/6=6. residuo 0&amp;nbsp; &amp;nbsp;&lt;br&gt;- N mod M= ?n:&amp;nbsp; &amp;nbsp;17/3=5. residuo 2,&amp;nbsp; &amp;nbsp;80/34=2 residuo 12,&amp;nbsp; &amp;nbsp; 18/7=2 residuo 4&amp;nbsp; &amp;nbsp; &amp;nbsp; &amp;nbsp;&amp;nbsp;&lt;br&gt;&amp;nbsp;" style="rounded=0;whiteSpace=wrap;html=1;" vertex="1" parent="SAbvqaDqnWTxNuCs36iu-1">
          <mxGeometry x="55" y="900" width="600" height="100" as="geometry" />
        </mxCell>
      </root>
    </mxGraphModel>
  </diagram>
  <diagram id="vMeNjP87LpSy9twJi5AR" name="Page-3">
    <mxGraphModel dx="791" dy="2796" grid="1" gridSize="10" guides="1" tooltips="1" connect="1" arrows="1" fold="1" page="1" pageScale="1" pageWidth="827" pageHeight="1169" math="0" shadow="0">
      <root>
        <mxCell id="kYPiwFhptWK6KYjPIbYt-0" />
        <mxCell id="kYPiwFhptWK6KYjPIbYt-1" parent="kYPiwFhptWK6KYjPIbYt-0" />
        <mxCell id="N5ciSZJWcwIas1xTsq3c-0" value="&#xa;&#xa;&lt;span style=&quot;color: rgb(45, 59, 69); font-family: latoweb, &amp;quot;lato extended&amp;quot;, lato, &amp;quot;helvetica neue&amp;quot;, helvetica, arial, sans-serif; font-size: 16px; font-style: normal; font-weight: 400; letter-spacing: normal; text-align: center; text-indent: 0px; text-transform: none; word-spacing: 0px; background-color: rgb(255, 255, 255); display: inline; float: none;&quot;&gt;&amp;nbsp;&lt;/span&gt;&lt;span style=&quot;color: rgb(45, 59, 69); font-family: latoweb, &amp;quot;lato extended&amp;quot;, lato, &amp;quot;helvetica neue&amp;quot;, helvetica, arial, sans-serif; font-size: 16px; font-style: normal; font-weight: 400; letter-spacing: normal; text-align: center; text-indent: 0px; text-transform: none; word-spacing: 0px; background-color: rgb(255, 255, 255); width: 582px; height: 415px; vertical-align: middle;&quot;&gt;&lt;span&gt;&amp;nbsp;&lt;/span&gt;&amp;nbsp; &amp;nbsp; &amp;nbsp; &amp;nbsp; &amp;nbsp;&lt;span&gt;&amp;nbsp;&lt;/span&gt;&lt;/span&gt;&lt;span style=&quot;color: rgb(45, 59, 69); font-family: latoweb, &amp;quot;lato extended&amp;quot;, lato, &amp;quot;helvetica neue&amp;quot;, helvetica, arial, sans-serif; font-size: 16px; font-style: normal; font-weight: 400; letter-spacing: normal; text-align: center; text-indent: 0px; text-transform: none; word-spacing: 0px; background-color: rgb(255, 255, 255); display: inline; float: none;&quot;&gt;&amp;nbsp;&lt;/span&gt;&lt;img src=&quot;https://ucb.instructure.com/courses/1259/files/141155/preview&quot; alt=&quot;df3-1.JPG&quot; style=&quot;max-width: 582px; height: auto; vertical-align: middle; border: 0px; color: rgb(45, 59, 69); font-family: latoweb, &amp;quot;lato extended&amp;quot;, lato, &amp;quot;helvetica neue&amp;quot;, helvetica, arial, sans-serif; font-size: 16px; font-style: normal; font-weight: 400; letter-spacing: normal; text-align: center; text-indent: 0px; text-transform: none; word-spacing: 0px; background-color: rgb(255, 255, 255);&quot;&gt;&#xa;&#xa;" style="whiteSpace=wrap;html=1;aspect=fixed;" vertex="1" parent="kYPiwFhptWK6KYjPIbYt-1">
          <mxGeometry x="194" y="-2290" width="440" height="440" as="geometry" />
        </mxCell>
        <mxCell id="UBLdnL2lrt9nNm-B5w7W-0" value="1. Identificar las variables&lt;br&gt;&lt;br&gt;&amp;nbsp;- Variables de entrada:&amp;nbsp; &amp;nbsp; &amp;nbsp; &amp;nbsp; &amp;nbsp; A,B,C&lt;br&gt;- variables de Salida:&amp;nbsp; &amp;nbsp;Orden de cifra menor a cifra mayor (A&amp;lt;B&amp;lt;C)&amp;nbsp;" style="rounded=0;whiteSpace=wrap;html=1;" vertex="1" parent="kYPiwFhptWK6KYjPIbYt-1">
          <mxGeometry x="119" y="-1770" width="590" height="100" as="geometry" />
        </mxCell>
        <mxCell id="UBLdnL2lrt9nNm-B5w7W-1" value="DESARROLLO" style="rounded=0;whiteSpace=wrap;html=1;" vertex="1" parent="kYPiwFhptWK6KYjPIbYt-1">
          <mxGeometry x="60" y="-1840" width="120" height="60" as="geometry" />
        </mxCell>
        <mxCell id="UBLdnL2lrt9nNm-B5w7W-2" value="2. Indicar que problema resuelve.&lt;br&gt;- En un juego&amp;nbsp; virtual dan tres cifras distintas a un participante,&amp;nbsp; para ganar el juego debe de encontrar un orden numérico de la cifra menor a la cifra mayor. Por lo que el programa debe de realizar todas las alternativas posibles para encontrar ese orden.&amp;nbsp;" style="rounded=0;whiteSpace=wrap;html=1;" vertex="1" parent="kYPiwFhptWK6KYjPIbYt-1">
          <mxGeometry x="120" y="-1630" width="600" height="120" as="geometry" />
        </mxCell>
        <mxCell id="j-RFlN8Np_fW5sNBfxdy-0" value="3. Prueba de escritorio:&lt;br&gt;&amp;nbsp; A&amp;lt;B&amp;lt;C&amp;nbsp; &amp;nbsp;&lt;br&gt;A=2,C=6,B=4:&amp;nbsp; &amp;nbsp;2&amp;lt;4&amp;lt;6&lt;br&gt;B=8,A=7,C=12:&amp;nbsp; 7&amp;lt;8&amp;lt;12&lt;br&gt;C=987,B=567,A=234:&amp;nbsp; 234&amp;lt;567&amp;lt;987&lt;br&gt;&amp;nbsp;" style="rounded=0;whiteSpace=wrap;html=1;" vertex="1" parent="kYPiwFhptWK6KYjPIbYt-1">
          <mxGeometry x="120" y="-1450" width="600" height="100" as="geometry" />
        </mxCell>
      </root>
    </mxGraphModel>
  </diagram>
  <diagram id="FjqgRy6Ds2VwY3KijvPt" name="Page-4">
    <mxGraphModel dx="791" dy="458" grid="1" gridSize="10" guides="1" tooltips="1" connect="1" arrows="1" fold="1" page="1" pageScale="1" pageWidth="827" pageHeight="1169" math="0" shadow="0">
      <root>
        <mxCell id="MTHAYOqzwIVLyaYkFWUT-0" />
        <mxCell id="MTHAYOqzwIVLyaYkFWUT-1" parent="MTHAYOqzwIVLyaYkFWUT-0" />
      </root>
    </mxGraphModel>
  </diagram>
</mxfile>
